<svg aria-hidden="true" style="position: absolute; width: 0; height: 0; overflow: hidden;" version="1.1" xmlns="http://www.w3.org/2000/svg" xmlns:xlink="http://www.w3.org/1999/xlink">
<defs>
<symbol id="icon-shape-3" viewBox="0 0 26 32">
<path d="M18.31 11.395l6.13 16.582c0.36 0.876 0.254 1.904-0.297 2.719s-1.468 1.301-2.455 1.301h-17.444c-0.987 0-1.905-0.485-2.455-1.299-0.55-0.817-0.657-1.845-0.284-2.752l6.118-16.55v-4.881c-1.159-0.401-1.989-1.495-1.989-2.777v-0.796c0-1.622 1.327-2.941 2.959-2.941h8.749c1.631 0 2.959 1.319 2.959 2.941v0.796c0 1.283-0.832 2.378-1.989 2.778v4.879zM9.225 23.215c-0.555 0-1.006 0.447-1.006 1.003s0.451 1.002 1.006 1.002c0.559 0 1.011-0.447 1.011-1.002 0-0.556-0.451-1.003-1.011-1.003zM16.461 26.822c0-0.953-0.779-1.73-1.743-1.73-0.965 0-1.742 0.777-1.742 1.73 0 0.957 0.777 1.734 1.742 1.734 0.964 0 1.743-0.777 1.743-1.734zM14.492 20.048c-0.695 0-1.257 0.562-1.257 1.248 0 0.688 0.563 1.248 1.257 1.248 0.691 0 1.254-0.56 1.254-1.248 0-0.686-0.563-1.248-1.254-1.248zM9.579 5.706v6.035l-2.283 6.175h0.090c0 0 9.339-0.153 10.617-1.472 0.013-0.013 0.025-0.024 0.037-0.034 0.010-0.008 0.019-0.016 0.029-0.026l-1.717-4.643v-7.008h0.978c0.561 0 1.010-0.447 1.010-0.995v-0.796c0-0.549-0.449-0.996-1.001-0.996h-8.749c-0.552 0-1.002 0.447-1.002 0.996v0.796c0 0.548 0.45 0.995 1.002 0.995h0.979l0.009 0.973zM13.646 14.132c0 0.749-0.611 1.357-1.361 1.357-0.754 0-1.364-0.608-1.364-1.357 0-0.745 0.61-1.354 1.364-1.354 0.75 0 1.361 0.61 1.361 1.354z"></path>
</symbol>
<symbol id="icon-shape-4" viewBox="0 0 34 32">
<path d="M32.525 1.034c0.111-0.058 0.247-0.044 0.347 0.033 0.098 0.078 0.142 0.206 0.113 0.328l-5.823 23.804c-0.021 0.086-0.078 0.158-0.154 0.203-0.049 0.027-0.105 0.042-0.16 0.042-0.031 0-0.063-0.005-0.094-0.014l-11.647-3.518c-0.104-0.031-0.185-0.113-0.216-0.215-0.030-0.105-0.006-0.216 0.064-0.298l11.594-13.606-15.094 12.793c-0.084 0.077-0.204 0.102-0.313 0.067l-9.924-3.13c-0.124-0.040-0.213-0.15-0.224-0.28-0.010-0.13 0.058-0.253 0.176-0.312l31.357-15.899zM15.296 24.406l3.219 0.982c0.096 0.029 0.173 0.102 0.208 0.196 0.035 0.093 0.024 0.197-0.030 0.281l-3.218 5.043c-0.061 0.094-0.165 0.149-0.273 0.149-0.031 0-0.061-0.005-0.090-0.013-0.139-0.040-0.234-0.165-0.234-0.308v-6.024c0-0.101 0.048-0.197 0.131-0.258s0.19-0.080 0.287-0.048z"></path>
</symbol>
<symbol id="icon-shape-2" viewBox="0 0 30 32">
<path d="M13.107 12.49l0.071 0.003c0.258 0 0.508-0.124 0.668-0.332 0.177-0.232 0.224-0.536 0.126-0.81-0.008-0.024-0.815-2.373 0.232-4.33 1.112-1.864 1.474-3.364 1.076-4.46-0.357-0.984-1.163-1.246-1.251-1.271-0.441-0.131-0.92 0.131-1.050 0.574-0.132 0.451 0.123 0.927 0.533 1.048 0.005 0.002 0.119 0.059 0.184 0.238 0.096 0.263 0.198 1.078-0.91 2.945l-0.041 0.069c-0.085 0.141-0.176 0.287-0.275 0.44-1.282 1.987-1.666 3.552-1.142 4.649 0.422 0.886 1.312 1.194 1.778 1.237zM25.036 26.92c-1.132-0.080-2.429-0.144-3.828-0.192 1.276-1.113 2.354-2.556 3.146-4.235 0.387 0.391 0.867 0.677 1.412 0.81 0.238 0.059 0.479 0.088 0.719 0.088 0.548 0 1.087-0.152 1.566-0.447 0.689-0.425 1.174-1.095 1.364-1.888s0.064-1.613-0.356-2.31c-0.704-1.168-2.062-1.675-3.31-1.361 0.054-0.544 0.091-1.096 0.091-1.658 0-0.587-0.47-1.064-1.051-1.064h-19.464c-0.581 0-1.052 0.476-1.052 1.064 0 4.552 1.834 8.574 4.627 11.002-1.396 0.048-2.691 0.112-3.821 0.191-3.937 0.278-5.081 0.543-5.081 1.762s1.145 1.483 5.081 1.762c2.669 0.189 6.213 0.293 9.978 0.293s7.309-0.104 9.978-0.293c3.937-0.278 5.081-0.544 5.081-1.762s-1.144-1.483-5.081-1.762zM25.54 18.825c0.004-0.003 0.008-0.004 0.012-0.005s0.008-0.002 0.012-0.005c0.828-0.509 1.913-0.243 2.418 0.595 0.245 0.405 0.318 0.884 0.207 1.346s-0.393 0.852-0.795 1.099c-0.401 0.248-0.875 0.322-1.33 0.21-0.457-0.113-0.843-0.398-1.087-0.804-0.013-0.021-0.030-0.038-0.047-0.054-0.009-0.009-0.019-0.018-0.028-0.028 0.269-0.751 0.482-1.539 0.638-2.354zM6.415 16.79h17.285c-0.413 5.731-4.132 10.23-8.643 10.23s-8.229-4.5-8.643-10.23zM17.655 12.65l-0.059-0.002c-0.439-0.043-1.034-0.308-1.324-0.917-0.372-0.777-0.138-1.801 0.719-3.127 0.052-0.080 0.101-0.159 0.147-0.235l0.048-0.081c0.66-1.111 0.545-1.515 0.529-1.557 0.003 0.001 0.038 0.017 0.086 0.031-0.202-0.061-0.369-0.198-0.469-0.386s-0.123-0.405-0.063-0.61c0.119-0.409 0.574-0.662 0.984-0.541 0.116 0.035 0.692 0.242 0.95 0.952 0.279 0.768 0.055 1.742-0.684 2.979-0.574 1.073-0.124 2.404-0.119 2.421l0 0c0.093 0.259 0.048 0.545-0.12 0.763-0.15 0.195-0.384 0.31-0.626 0.31z"></path>
</symbol>
<symbol id="icon-shape-1" viewBox="0 0 28 32" >
<path d="M26.068 8.89h-10.090l3.98-4.778c0.064 0.011 0.118 0.036 0.185 0.036 0.655 0 1.185-0.53 1.185-1.186 0-0.652-0.53-1.186-1.185-1.186-0.652 0-1.185 0.534-1.185 1.186 0 0.143 0.036 0.275 0.082 0.401l-4.604 5.527h-0.434l-4.602-5.527c0.045-0.126 0.079-0.258 0.079-0.401 0-0.652-0.53-1.186-1.185-1.186-0.653 0-1.185 0.534-1.185 1.186 0 0.656 0.532 1.186 1.185 1.186 0.066 0 0.123-0.025 0.184-0.036l3.981 4.778h-10.090c-1.308 0-2.369 1.063-2.369 2.371v16.6c0 1.309 1.061 2.37 2.369 2.37h23.699c1.308 0 2.369-1.061 2.369-2.37v-16.6c0-1.308-1.061-2.371-2.369-2.371zM21.327 25.489c0 1.309-1.060 2.372-2.37 2.372h-14.218c-1.308 0-2.37-1.063-2.37-2.372v-11.857c0-1.31 1.062-2.372 2.37-2.372h14.218c1.31 0 2.37 1.062 2.37 2.372v11.857zM24.819 14.892c-0.935 0-1.693-0.76-1.693-1.694s0.758-1.692 1.693-1.692c0.934 0 1.692 0.757 1.692 1.692s-0.758 1.694-1.692 1.694z"></path>
</symbol>
<symbol id="icon-home" viewBox="0 0 24 28">
<path d="M14.5 21.187v-11.188h-5v11.188c0 0.547 0.453 0.812 1 0.812h3c0.547 0 1-0.266 1-0.812zM7.375 8h3.047l-1.969-2.516c-0.172-0.203-0.547-0.484-1.078-0.484-0.828 0-1.5 0.672-1.5 1.5s0.672 1.5 1.5 1.5zM18.125 6.5c0-0.828-0.672-1.5-1.5-1.5-0.531 0-0.906 0.281-1.078 0.484l-1.953 2.516h3.031c0.828 0 1.5-0.672 1.5-1.5zM24 10.5v5c0 0.281-0.219 0.5-0.5 0.5h-1.5v6.5c0 0.828-0.672 1.5-1.5 1.5h-17c-0.828 0-1.5-0.672-1.5-1.5v-6.5h-1.5c-0.281 0-0.5-0.219-0.5-0.5v-5c0-0.281 0.219-0.5 0.5-0.5h6.875c-1.937 0-3.5-1.563-3.5-3.5s1.563-3.5 3.5-3.5c1.047 0 2.016 0.438 2.625 1.203l2 2.578 2-2.578c0.609-0.766 1.578-1.203 2.625-1.203 1.937 0 3.5 1.563 3.5 3.5s-1.563 3.5-3.5 3.5h6.875c0.281 0 0.5 0.219 0.5 0.5z"></path>
</symbol>
</defs>
</svg>
